<?xml version="1.0" encoding="UTF-8"?>
<svg viewBox="0 0 25 23" version="1.1" xmlns="http://www.w3.org/2000/svg" xmlns:xlink="http://www.w3.org/1999/xlink">
    <title>koya-button-close</title>
    <g id="Page-1" stroke="none" stroke-width="1" fill="none" fill-rule="evenodd">
        <g id="Les-clés-de-koya-PUSH" transform="translate(-752.000000, -241.000000)" fill="#fff">
            <g id="ENCART-Copy-2" transform="translate(143.000000, 179.000000)">
                <g id="croix" transform="translate(609.000000, 62.000000)">
                    <path d="M15.4216705,11.5 L23.8951193,3.37994834 C24.7016269,2.60707727 24.7016269,1.3534782 23.8951193,0.580062088 C23.0880429,-0.193354029 21.7804541,-0.193354029 20.9733777,0.580062088 L12.4999289,8.70011375 L4.02704888,0.580062088 C3.21997251,-0.193354029 1.91181489,-0.193354029 1.10530728,0.580062088 C0.298230906,1.3534782 0.298230906,2.60707727 1.10530728,3.37994834 L9.5781873,11.5 L1.10530728,19.6195066 C0.298230906,20.3929227 0.298230906,21.6465218 1.10530728,22.4199379 C1.91181489,23.193354 3.21997251,23.193354 4.02704888,22.4199379 L12.4999289,14.2998863 L20.9733777,22.4199379 C21.7804541,23.193354 23.0880429,23.193354 23.8951193,22.4199379 C24.7016269,21.6465218 24.7016269,20.3929227 23.8951193,19.6195066 L15.4216705,11.5 Z" id="Fill-1"></path>
                </g>
            </g>
        </g>
    </g>
</svg>